<svg viewBox="0 0 24 24" xmlns="http://www.w3.org/2000/svg" xmlns:xlink="http://www.w3.org/1999/xlink" width="24.000000" height="24.000000" fill="none" customFrame="#000000">
	<defs>
		<clipPath id="clipPath_0">
			<rect width="24.000000" height="24.000000" x="0.000000" y="0.000000" fill="rgb(255,255,255)" />
		</clipPath>
		<clipPath id="clipPath_1">
			<rect width="24.000000" height="24.000000" x="0.000000" y="0.000000" fill="rgb(255,255,255)" />
		</clipPath>
	</defs>
	<rect id=".xiaoyi" width="24.000000" height="24.000000" x="0.000000" y="0.000000" fill="rgb(255,255,255)" fill-opacity="0" />
	<g id=".xiaoyi" customFrame="url(#clipPath_0)">
		<rect id=".xiaoyi" width="24.000000" height="24.000000" x="0.000000" y="0.000000" />
		<g id="Celia" clip-path="url(#clipPath_1)" customFrame="url(#clipPath_1)">
			<rect id="Celia" width="24.000000" height="24.000000" x="0.000000" y="0.000000" />
			<rect id="rect" width="24.000000" height="24.000000" x="0.000000" y="0.000000" opacity="0" />
			<path id="" d="M12 0.890625C10.0156 0.890625 8.17969 1.38281 6.49219 2.36719C4.80469 3.34766 3.46875 4.68359 2.48438 6.375C1.5 8.0625 1.00781 9.89844 1.00781 11.8828C1.00781 13.8633 1.5 15.6992 2.48438 17.3906C3.46875 19.0781 4.80469 20.4121 6.49219 21.3926C8.17969 22.377 10.0156 22.8691 12 22.8691C13.9844 22.8691 15.8164 22.377 17.4961 21.3926C19.1758 20.4121 20.5117 19.0781 21.5039 17.3906C22.4961 15.6992 22.9922 13.8633 22.9922 11.8828C22.9922 9.89844 22.5 8.0625 21.5156 6.375C20.5312 4.68359 19.1953 3.34766 17.5078 2.36719C15.8203 1.38281 13.9844 0.890625 12 0.890625ZM12 21.3867C10.2891 21.3867 8.70508 20.959 7.24805 20.1035C5.79102 19.2441 4.63477 18.0879 3.7793 16.6348C2.92383 15.1777 2.49609 13.5938 2.49609 11.8828C2.49609 10.1523 2.92383 8.56055 3.7793 7.10742C4.63477 5.65039 5.79102 4.49805 7.24805 3.65039C8.70508 2.80273 10.2891 2.37891 12 2.37891C13.7109 2.37891 15.2949 2.80273 16.752 3.65039C18.209 4.49805 19.3652 5.65039 20.2207 7.10742C21.0762 8.56055 21.5039 10.1523 21.5039 11.8828C21.5039 13.6094 21.0762 15.2012 20.2207 16.6582C19.3652 18.1113 18.209 19.2637 16.752 20.1152C15.2949 20.9629 13.7109 21.3867 12 21.3867ZM10.2246 10.7754C10.9121 11.0645 11.4551 11.3125 11.8535 11.5195C12.8613 12.0469 13.7539 12.4316 14.5312 12.6738C15.3086 12.9121 16.0723 12.9766 16.8223 12.8672C17.5762 12.7539 18.3203 12.3926 19.0547 11.7832C19.5195 11.4004 19.8203 10.9141 19.957 10.3242C20.0938 9.73047 20.0859 9.11719 19.9336 8.48438C19.7812 7.85156 19.5215 7.28711 19.1543 6.79102C18.3379 5.66992 17.3047 4.79492 16.0547 4.16602C14.8086 3.5332 13.4883 3.2168 12.0938 3.2168C10.5273 3.2168 9.08008 3.60938 7.75195 4.39453C6.42383 5.17578 5.36328 6.21875 4.57031 7.52344C3.78125 8.82812 3.36914 10.2168 3.33398 11.6895C3.31836 12.1191 3.375 12.4863 3.50391 12.791C3.63281 13.0957 3.82422 13.3672 4.07812 13.6055C4.49609 13.9766 5.00781 14.1621 5.61328 14.1621C6.03125 14.1621 6.43164 14.0703 6.81445 13.8867C7.20117 13.6992 7.51367 13.4375 7.75195 13.1016L7.86914 12.9375C8.31836 12.3125 8.71094 11.8242 9.04688 11.4727C9.38281 11.1211 9.77539 10.8887 10.2246 10.7754ZM12.0938 4.70508C13.2461 4.70508 14.3379 4.96875 15.3691 5.49609C16.4043 6.02344 17.2578 6.75195 17.9297 7.68164C18.2656 8.12695 18.4648 8.65039 18.5273 9.25195C18.5898 9.85352 18.4453 10.3145 18.0938 10.6348C17.6797 10.9863 17.2637 11.2266 16.8457 11.3555C16.4316 11.4805 15.8809 11.4629 15.1934 11.3027C14.5059 11.1426 13.6172 10.7754 12.5273 10.2012C10.5586 9.14258 8.82227 8.61328 7.31836 8.61328C6.67773 8.61328 6.07031 8.72656 5.49609 8.95312C5.87891 8.12109 6.40234 7.38477 7.06641 6.74414C7.73047 6.10352 8.49414 5.60352 9.35742 5.24414C10.2246 4.88477 11.1367 4.70508 12.0938 4.70508ZM6.52734 12.2402C6.38281 12.4316 6.19336 12.5684 5.95898 12.6504C5.72852 12.7285 5.51758 12.7285 5.32617 12.6504C5.16602 12.584 5.04102 12.4707 4.95117 12.3105C4.86523 12.1504 4.84766 11.9434 4.89844 11.6895C4.92969 11.4824 5.02539 11.2598 5.18555 11.0215C5.3457 10.7793 5.51367 10.6094 5.68945 10.5117C6.04102 10.3047 6.42383 10.1855 6.83789 10.1543C7.25586 10.1191 7.7207 10.1426 8.23242 10.2246C7.94336 10.4629 7.68164 10.7266 7.44727 11.0156C7.2168 11.3047 6.94141 11.6719 6.62109 12.1172L6.52734 12.2402ZM18.1934 14.8828C17.5059 14.9609 16.8418 14.9512 16.2012 14.8535C15.7832 14.791 15.1191 14.6797 14.209 14.5195C12.7051 14.2656 11.4688 14.2793 10.5 14.5605C9.53125 14.8379 8.90234 15.5371 8.61328 16.6582C8.51953 17.0254 8.50391 17.4219 8.56641 17.8477C8.63281 18.2695 8.83398 18.6973 9.16992 19.1309C9.56836 19.6426 10.0078 20.0098 10.4883 20.2324C10.9688 20.4551 11.4336 20.5664 11.8828 20.5664C12.6641 20.5508 13.4258 20.459 14.168 20.291C14.9141 20.123 15.5684 19.8789 16.1309 19.5586C16.8496 19.1445 17.4883 18.6777 18.0469 18.1582C18.6094 17.6387 19.0449 17.1465 19.3535 16.6816C19.666 16.2168 19.8379 15.8555 19.8691 15.5977C19.8887 15.3281 19.8379 15.1328 19.7168 15.0117C19.5957 14.8906 19.4141 14.8262 19.1719 14.8184C18.9336 14.8105 18.6074 14.832 18.1934 14.8828ZM15.3867 18.2637C15.0312 18.4551 14.5215 18.6484 13.8574 18.8438C13.1934 19.0352 12.5586 19.1133 11.9531 19.0781C11.5859 19.0625 11.2422 18.9473 10.9219 18.7324C10.6016 18.5176 10.3574 18.2539 10.1895 17.9414C10.0215 17.6289 9.97656 17.3281 10.0547 17.0391C10.168 16.625 10.3965 16.3105 10.7402 16.0957C11.084 15.877 11.4883 15.7676 11.9531 15.7676C12.4492 15.7676 13.1211 15.8477 13.9688 16.0078C14.7539 16.1055 15.5371 16.209 16.3184 16.3184C16.5762 16.3496 16.752 16.3652 16.8457 16.3652C17.0566 16.4004 17.3301 16.418 17.666 16.418C17.7754 16.418 17.8301 16.4453 17.8301 16.5C17.8301 16.5547 17.7754 16.6387 17.666 16.752C17.4707 16.9434 17.1445 17.1875 16.6875 17.4844C16.2344 17.7812 15.8008 18.041 15.3867 18.2637Z" fill="rgb(0,0,0)" fill-opacity="0.898039222" fill-rule="nonzero" />
		</g>
	</g>
</svg>
